{"title":"The Monster That Challenged the World(1957)MP-4[DaScubaDude]","uid":12543596,"size":1036231540,"categoryP":"video","categoryS":"movies","magnet":"?xt=urn:btih:a815929677404c3dd2600d259694f84472062541&amp;dn=The+Monster+That+Challenged+the+World%281957%29MP-4%5BDaScubaDude%5D&amp;tr=udp%3A%2F%2Ftracker.leechers-paradise.org%3A6969&amp;tr=udp%3A%2F%2Fzer0day.ch%3A1337&amp;tr=udp%3A%2F%2Fopen.demonii.com%3A1337&amp;tr=udp%3A%2F%2Ftracker.coppersurfer.tk%3A6969&amp;tr=udp%3A%2F%2Fexodus.desync.com%3A6969","seeders":0,"leechers":0,"uploader":"dascuba","files":1,"time":1444435660,"description":"The Monster That Challenged the World (1957)\r\nApproved  |  84 min  |  Horror, Sci-Fi  |  June 1957 (USA)\r\n5.8 Your rating:   -/10   Ratings: 5.8/10 from 1,635 users   \r\nReviews: 73 user | 37 critic\r\nGiant mollusk monsters attack California.\r\n\r\nDirector: Arnold Laven\r\nWriters: David Duncan (story), Pat Fielder (screenplay)\r\nStars: Tim Holt, Audrey Dalton, Hans Conried |\r\n\r\n\r\nGeneral\r\nComplete name                            : C:The Monster That Challenged the WorldTHE_MONSTER_THAT_CHALLENGED_THE_Title1.mp4\r\nFormat                                   : MPEG-4\r\nFormat profile                           : Base Media\r\nCodec ID                                 : isom\r\nFile size                                : 988 MiB\r\nDuration                                 : 1h 24mn\r\nOverall bit rate mode                    : Constant\r\nOverall bit rate                         : 1 634 Kbps\r\nMovie name                               : THE_MONSTER_THAT_CHALLENGED_THE\r\nGenre                                    : Horror\r\nWriting application                      : Lavf54.6.100\r\n\r\nVideo\r\nID                                       : 1\r\nFormat                                   : MPEG-4 Visual\r\nFormat settings, BVOP                    : No\r\nFormat settings, QPel                    : No\r\nFormat settings, GMC                     : No warppoints\r\nFormat settings, Matrix                  : Default (H.263)\r\nCodec ID                                 : 20\r\nDuration                                 : 1h 24mn\r\nBit rate mode                            : Constant\r\nBit rate                                 : 1 500 Kbps\r\nWidth                                    : 720 pixels\r\nHeight                                   : 540 pixels\r\nDisplay aspect ratio                     : 4:3\r\nFrame rate mode                          : Constant\r\nFrame rate                               : 29.970 fps\r\nColor space                              : YUV\r\nChroma subsampling                       : 4:2:0\r\nBit depth                                : 8 bits\r\nScan type                                : Progressive\r\nCompression mode                         : Lossy\r\nBits/(Pixel*Frame)                       : 0.129\r\nStream size                              : 907 MiB (92%)\r\nWriting library                          : Lavc54.23.100\r\n\r\nAudio\r\nID                                       : 2\r\nFormat                                   : MPEG Audio\r\nFormat version                           : Version 1\r\nFormat profile                           : Layer 3\r\nCodec ID                                 : 6B\r\nDuration                                 : 1h 24mn\r\nBit rate mode                            : Constant\r\nBit rate                                 : 128 Kbps\r\nChannel(s)                               : 2 channels\r\nSampling rate                            : 44.1 KHz\r\nCompression mode                         : Lossy\r\nStream size                              : 77.4 MiB (8%)\r\nWriting library                          : LAME3.99.5","torrent":{"xt":"urn:btih:a815929677404c3dd2600d259694f84472062541","amp;dn":"The+Monster+That+Challenged+the+World%281957%29MP-4%5BDaScubaDude%5D","amp;tr":["udp%3A%2F%2Ftracker.leechers-paradise.org%3A6969","udp%3A%2F%2Fzer0day.ch%3A1337","udp%3A%2F%2Fopen.demonii.com%3A1337","udp%3A%2F%2Ftracker.coppersurfer.tk%3A6969","udp%3A%2F%2Fexodus.desync.com%3A6969"],"infoHash":"a815929677404c3dd2600d259694f84472062541","infoHashBuffer":{"type":"Buffer","data":[168,21,146,150,119,64,76,61,210,96,13,37,150,148,248,68,114,6,37,65]},"announce":[],"urlList":[]}}